<svg width="20" height="20" viewBox="0 0 20 20" fill="none" xmlns="http://www.w3.org/2000/svg">
<path d="M16.6666 8.33341V5.83341L12.4999 1.66675H4.99992C4.55789 1.66675 4.13397 1.84234 3.82141 2.1549C3.50885 2.46746 3.33325 2.89139 3.33325 3.33341V16.6667C3.33325 17.1088 3.50885 17.5327 3.82141 17.8453C4.13397 18.1578 4.55789 18.3334 4.99992 18.3334H8.33325M11.6666 1.66675V5.00008C11.6666 5.44211 11.8422 5.86603 12.1547 6.17859C12.4673 6.49115 12.8912 6.66675 13.3333 6.66675H16.6666M13.3333 11.6667C12.8912 11.6667 12.4673 11.8423 12.1547 12.1549C11.8422 12.4675 11.6666 12.8914 11.6666 13.3334M16.6666 11.6667C17.1086 11.6667 17.5325 11.8423 17.8451 12.1549C18.1577 12.4675 18.3333 12.8914 18.3333 13.3334M16.6666 18.3334C17.1086 18.3334 17.5325 18.1578 17.8451 17.8453C18.1577 17.5327 18.3333 17.1088 18.3333 16.6667M13.3333 18.3334C12.8912 18.3334 12.4673 18.1578 12.1547 17.8453C11.8422 17.5327 11.6666 17.1088 11.6666 16.6667" stroke="white" stroke-width="2" stroke-linecap="round" stroke-linejoin="round"/>
</svg>
