<svg width="117" height="24" viewBox="0 0 117 24" fill="none" xmlns="http://www.w3.org/2000/svg">
<path d="M5.30273 6.01953V7.48047C7.27595 6.28375 7.95335 6.08105 8.9502 6.08105C11.2833 6.08107 12.997 8.27145 12.9971 11.293C12.9971 14.8008 10.7046 17.1533 7.07617 17.1533C6.67816 17.1533 5.97947 17.1341 5.28223 17.0527L5.30273 20.5801L7.05664 20.9863V22H0.180664V20.9863L1.75488 20.5801V8.37207H0V7.31836L4.20703 6.01953H5.30273ZM37.7734 6C40.2256 6 41.9004 7.13573 41.9004 8.79883C41.9003 9.87328 41.1233 10.6238 39.9473 10.624C39.3494 10.624 38.8507 10.4617 38.2334 10.0967L38.2529 7.17676C36.4387 7.4814 35.502 8.83965 35.502 11.2529C35.502 13.665 36.7378 15.287 38.6309 15.2871C39.5077 15.2871 40.3253 14.9829 42 14.1514V16.0977C39.9663 17.0513 38.791 17.3359 37.1562 17.3359C35.3821 17.3359 34.1462 16.8493 33.1289 15.8145C32.0931 14.7607 31.5753 13.3615 31.5752 11.7998C31.5752 8.33276 34.0866 6.00008 37.7734 6ZM29.6211 6C30.6979 6.00003 31.4951 6.8316 31.4951 7.84473C31.4951 8.85984 30.917 9.71103 29.2822 11.7998L25.1758 17.1934H22.2061V10.4209L18.1602 17.1934H15.4492V8.4541L13.3555 8.23047V7.23633L17.1826 6.28418H18.6377V13.4014L22.8633 6.28418H25.415V14.5381L28.0869 10.9072V6.64941C28.3659 6.30508 28.9637 6 29.6211 6ZM6.53809 8.37207C6.23962 8.37207 5.94066 8.41375 5.32227 8.49512L5.30273 15.8145C5.5817 15.8353 5.72092 15.835 5.90137 15.835C8.07437 15.8349 9.25 14.4551 9.25 11.7998C9.24991 9.56932 8.2927 8.37209 6.53809 8.37207Z" fill="#252525"/>
<path d="M52.207 9.93164C52.125 9.14551 51.5029 8.6875 50.498 8.6875C49.459 8.6875 48.8779 9.16602 48.8711 9.82227C48.8643 10.54 49.6025 10.8613 50.457 11.0527L51.3457 11.2715C53.041 11.6611 54.3057 12.5225 54.3125 14.1699C54.3057 15.9814 52.8975 17.1436 50.4844 17.1367C48.0918 17.1436 46.5674 16.0361 46.5059 13.9102H48.502C48.5703 14.9082 49.3633 15.4141 50.457 15.4141C51.5371 15.4141 52.2344 14.9082 52.2344 14.1699C52.2344 13.4932 51.6191 13.1787 50.5391 12.9121L49.459 12.6523C47.791 12.2422 46.7656 11.4082 46.7656 9.95898C46.7588 8.16113 48.3447 6.96484 50.5117 6.96484C52.7061 6.96484 54.1484 8.18164 54.1758 9.93164H52.207ZM55.2559 14.9219C55.2627 13.2676 56.5889 12.7275 58.0176 12.6387C58.5508 12.6045 59.5488 12.5566 59.8633 12.543V11.9414C59.8564 11.3193 59.4326 10.9639 58.6738 10.957C57.9834 10.9639 57.5527 11.2715 57.4434 11.7773H55.5156C55.6387 10.4922 56.7598 9.48047 58.7285 9.48047C60.3486 9.48047 61.8799 10.2051 61.873 11.9961V17H59.959V15.9746H59.9043C59.542 16.6582 58.8311 17.1436 57.7305 17.1367C56.3086 17.1436 55.2627 16.3916 55.2559 14.9219ZM57.1973 14.8672C57.1973 15.4346 57.6553 15.7354 58.3047 15.7422C59.2275 15.7354 59.8701 15.1338 59.8633 14.3477V13.8076C59.5557 13.8213 58.6875 13.8691 58.3457 13.8965C57.6416 13.958 57.1973 14.293 57.1973 14.8672ZM63.418 17V9.57617H65.3457V10.875H65.4277C65.7422 10.0068 66.4941 9.48047 67.4922 9.48047C68.5107 9.48047 69.2695 10.0205 69.5156 10.875H69.584C69.8916 10.0342 70.7393 9.48047 71.8262 9.48047C73.2002 9.48047 74.1641 10.3896 74.1641 12.0098V17H72.1406V12.4062C72.1475 11.5586 71.6416 11.1484 70.9785 11.1484C70.2197 11.1484 69.7686 11.6748 69.7754 12.4609V17H67.8066V12.3516C67.8135 11.6201 67.3486 11.1484 66.6582 11.1484C65.9678 11.1484 65.4346 11.7021 65.4414 12.543V17H63.418ZM75.7227 17V9.57617H77.7461V17H75.7227ZM75.627 7.58008C75.627 7.00586 76.126 6.54785 76.7344 6.54102C77.3359 6.54785 77.835 7.00586 77.8281 7.58008C77.835 8.14062 77.3359 8.60547 76.7344 8.60547C76.126 8.60547 75.627 8.14062 75.627 7.58008ZM81.3418 7.10156V17H79.3184V7.10156H81.3418ZM87.8359 17H85.6211L89.0527 7.10156H91.6914L95.1094 17H92.9082L92.1631 14.7168H88.5811L87.8359 17ZM89.1006 13.1172H91.6436L90.4062 9.33008H90.3379L89.1006 13.1172ZM102.383 10.5469C102.219 9.45312 101.378 8.79004 100.223 8.7832C98.6846 8.79004 97.666 9.96582 97.666 12.0508C97.666 14.1836 98.6982 15.3115 100.209 15.3184C101.337 15.3115 102.185 14.6963 102.383 13.623L104.461 13.6367C104.235 15.4688 102.697 17.1367 100.182 17.1367C97.5361 17.1367 95.5742 15.2705 95.5742 12.0508C95.5742 8.81738 97.5703 6.96484 100.182 6.96484C102.465 6.96484 104.188 8.27051 104.461 10.5469H102.383Z" fill="#252525"/>
</svg>
