<svg width="80" height="80" viewBox="0 0 80 80" fill="none" xmlns="http://www.w3.org/2000/svg">
<rect width="80" height="80" rx="40" fill="#FAC7CE"/>
<path fill-rule="evenodd" clip-rule="evenodd" d="M39.9998 25C31.7156 25 24.9998 31.7157 24.9998 40C24.9998 48.2843 31.7156 55 39.9998 55C48.2841 55 54.9998 48.2843 54.9998 40C54.9998 31.7157 48.2841 25 39.9998 25ZM21.6665 40C21.6665 29.8748 29.8746 21.6667 39.9998 21.6667C50.1251 21.6667 58.3332 29.8748 58.3332 40C58.3332 50.1252 50.1251 58.3333 39.9998 58.3333C29.8746 58.3333 21.6665 50.1252 21.6665 40ZM33.8213 33.8215C34.4722 33.1706 35.5275 33.1706 36.1783 33.8215L39.9998 37.643L43.8213 33.8215C44.4722 33.1706 45.5275 33.1706 46.1783 33.8215C46.8292 34.4724 46.8292 35.5276 46.1783 36.1785L42.3569 40L46.1783 43.8215C46.8292 44.4724 46.8292 45.5276 46.1783 46.1785C45.5275 46.8294 44.4722 46.8294 43.8213 46.1785L39.9998 42.357L36.1783 46.1785C35.5275 46.8294 34.4722 46.8294 33.8213 46.1785C33.1705 45.5276 33.1705 44.4724 33.8213 43.8215L37.6428 40L33.8213 36.1785C33.1705 35.5276 33.1705 34.4724 33.8213 33.8215Z" fill="#9C1613"/>
</svg>
